<svg xmlns="http://www.w3.org/2000/svg" xmlns:xlink="http://www.w3.org/1999/xlink" viewBox="0 0 415.38 375.6"><defs><style>.cls-1{isolation:isolate;}.cls-2,.cls-4{fill-rule:evenodd;}.cls-2{mix-blend-mode:multiply;fill:url(#radial-gradient);}.cls-3{fill:#00b100;}.cls-4{fill:#fff;}.cls-5{font-size:29.69px;fill:#7d7f7f;font-family:Montserrat-Bold, Montserrat;font-weight:700;}.cls-6{letter-spacing:-0.03em;}.cls-7{fill:url(#_ÂÁ_Ï_ÌÌ_È_ËÂÌÚ_41);}.cls-8{fill:url(#_ÂÁ_Ï_ÌÌ_È_ËÂÌÚ_33);}.cls-9{fill:#1d2145;}.cls-10{fill:#d9523b;}.cls-11{fill:url(#_ÂÁ_Ï_ÌÌ_È_ËÂÌÚ_41-2);}.cls-12{fill:url(#_ÂÁ_Ï_ÌÌ_È_ËÂÌÚ_11);}.cls-13,.cls-19,.cls-23,.cls-28,.cls-29,.cls-30,.cls-33{mix-blend-mode:screen;}.cls-13{fill:url(#_ÂÁ_Ï_ÌÌ_È_ËÂÌÚ_7);}.cls-14{fill:url(#_ÂÁ_Ï_ÌÌ_È_ËÂÌÚ_41-3);}.cls-15{fill:#b4ffe9;}.cls-16{fill:#00ceb2;}.cls-17{fill:#88ebdb;}.cls-18{fill:#e0fff7;}.cls-19{fill:url(#_ÂÁ_Ï_ÌÌ_È_ËÂÌÚ_7-2);}.cls-20{fill:#9c002b;}.cls-21{fill:url(#_ÂÁ_Ï_ÌÌ_È_ËÂÌÚ_11-2);}.cls-22{fill:url(#_ÂÁ_Ï_ÌÌ_È_ËÂÌÚ_41-4);}.cls-23{fill:url(#_ÂÁ_Ï_ÌÌ_È_ËÂÌÚ_7-3);}.cls-24{fill:url(#_ÂÁ_Ï_ÌÌ_È_ËÂÌÚ_33-2);}.cls-25{fill:url(#_ÂÁ_Ï_ÌÌ_È_ËÂÌÚ_11-3);}.cls-26{fill:url(#_ÂÁ_Ï_ÌÌ_È_ËÂÌÚ_11-4);}.cls-27{fill:url(#_ÂÁ_Ï_ÌÌ_È_ËÂÌÚ_41-5);}.cls-28{fill:url(#_ÂÁ_Ï_ÌÌ_È_ËÂÌÚ_7-4);}.cls-29{fill:url(#_ÂÁ_Ï_ÌÌ_È_ËÂÌÚ_7-5);}.cls-30{fill:url(#_ÂÁ_Ï_ÌÌ_È_ËÂÌÚ_7-6);}.cls-31{fill:url(#_ÂÁ_Ï_ÌÌ_È_ËÂÌÚ_116);}.cls-32{fill:url(#_ÂÁ_Ï_ÌÌ_È_ËÂÌÚ_41-6);}.cls-33{fill:url(#_ÂÁ_Ï_ÌÌ_È_ËÂÌÚ_7-7);}.cls-34{fill:url(#_ÂÁ_Ï_ÌÌ_È_ËÂÌÚ_116-2);}</style><radialGradient id="radial-gradient" cx="26744.45" cy="315.93" r="263.68" gradientTransform="translate(-3795.83 -424.58) scale(0.15 1.91)" gradientUnits="userSpaceOnUse"><stop offset="0"/><stop offset="0.01" stop-color="#050505"/><stop offset="0.13" stop-color="#3f3f3f"/><stop offset="0.25" stop-color="#727272"/><stop offset="0.37" stop-color="#9d9d9d"/><stop offset="0.5" stop-color="#c1c1c1"/><stop offset="0.62" stop-color="#dcdcdc"/><stop offset="0.74" stop-color="#efefef"/><stop offset="0.87" stop-color="#fbfbfb"/><stop offset="1" stop-color="#fff"/></radialGradient><linearGradient id="_ÂÁ_Ï_ÌÌ_È_ËÂÌÚ_41" x1="127.8" y1="-112.56" x2="145.74" y2="-112.56" gradientTransform="matrix(1, 0.1, -0.1, 1, 8.36, 354.84)" gradientUnits="userSpaceOnUse"><stop offset="0" stop-color="#ffa424"/><stop offset="1" stop-color="#ed6d00"/></linearGradient><radialGradient id="_ÂÁ_Ï_ÌÌ_È_ËÂÌÚ_33" cx="117.83" cy="-81.68" r="46.32" gradientTransform="matrix(1, 0.1, -0.1, 1, 8.36, 354.84)" gradientUnits="userSpaceOnUse"><stop offset="0" stop-color="#316883"/><stop offset="1" stop-color="#1d2145"/></radialGradient><linearGradient id="_ÂÁ_Ï_ÌÌ_È_ËÂÌÚ_41-2" x1="200.02" y1="377.81" x2="185" y2="311.28" gradientTransform="matrix(1, 0, 0.19, 1, -60.63, 0)" xlink:href="#_ÂÁ_Ï_ÌÌ_È_ËÂÌÚ_41"/><linearGradient id="_ÂÁ_Ï_ÌÌ_È_ËÂÌÚ_11" x1="168.78" y1="328.3" x2="177.84" y2="382.66" gradientTransform="matrix(1, 0, 0.19, 1, -60.63, 0)" gradientUnits="userSpaceOnUse"><stop offset="0" stop-color="#ff7b4c"/><stop offset="1" stop-color="#b50031"/></linearGradient><linearGradient id="_ÂÁ_Ï_ÌÌ_È_ËÂÌÚ_7" x1="181.86" y1="314.67" x2="180.56" y2="369.55" gradientTransform="matrix(1, 0, 0.19, 1, -60.63, 0)" gradientUnits="userSpaceOnUse"><stop offset="0" stop-color="#b6b990"/><stop offset="0.15" stop-color="#9a9d7a"/><stop offset="0.74" stop-color="#2c2d23"/><stop offset="1"/></linearGradient><linearGradient id="_ÂÁ_Ï_ÌÌ_È_ËÂÌÚ_41-3" x1="337.7" y1="306.18" x2="275.8" y2="231.01" gradientTransform="matrix(0.98, 0, 0.19, 1.02, -131.61, -3.28)" xlink:href="#_ÂÁ_Ï_ÌÌ_È_ËÂÌÚ_41"/><linearGradient id="_ÂÁ_Ï_ÌÌ_È_ËÂÌÚ_7-2" x1="275.29" y1="226.62" x2="309.92" y2="280.41" gradientTransform="matrix(0.98, 0, 0.19, 1.02, -131.61, -3.28)" xlink:href="#_ÂÁ_Ï_ÌÌ_È_ËÂÌÚ_7"/><linearGradient id="_ÂÁ_Ï_ÌÌ_È_ËÂÌÚ_11-2" x1="287.97" y1="319.28" x2="290.67" y2="379.45" gradientTransform="matrix(1, 0, 0.2, 1, -61.3, 0)" xlink:href="#_ÂÁ_Ï_ÌÌ_È_ËÂÌÚ_11"/><linearGradient id="_ÂÁ_Ï_ÌÌ_È_ËÂÌÚ_41-4" x1="292.57" y1="401.5" x2="285.9" y2="268.74" gradientTransform="matrix(1, 0, 0.2, 1, -61.3, 0)" xlink:href="#_ÂÁ_Ï_ÌÌ_È_ËÂÌÚ_41"/><linearGradient id="_ÂÁ_Ï_ÌÌ_È_ËÂÌÚ_7-3" x1="280.32" y1="289.79" x2="290.39" y2="354.84" gradientTransform="matrix(1, 0, 0.2, 1, -61.3, 0)" xlink:href="#_ÂÁ_Ï_ÌÌ_È_ËÂÌÚ_7"/><radialGradient id="_ÂÁ_Ï_ÌÌ_È_ËÂÌÚ_33-2" cx="147.83" cy="75.58" r="128.13" gradientTransform="matrix(1, 0, 0, 1, 0, 0)" xlink:href="#_ÂÁ_Ï_ÌÌ_È_ËÂÌÚ_33"/><linearGradient id="_ÂÁ_Ï_ÌÌ_È_ËÂÌÚ_11-3" x1="286.41" y1="62.08" x2="275.11" y2="145.59" gradientTransform="matrix(1, 0, 0, 1, 0, 0)" xlink:href="#_ÂÁ_Ï_ÌÌ_È_ËÂÌÚ_11"/><linearGradient id="_ÂÁ_Ï_ÌÌ_È_ËÂÌÚ_11-4" x1="286.62" y1="68.01" x2="274.79" y2="155.47" gradientTransform="matrix(1, 0, 0, 1, 0, 0)" xlink:href="#_ÂÁ_Ï_ÌÌ_È_ËÂÌÚ_11"/><linearGradient id="_ÂÁ_Ï_ÌÌ_È_ËÂÌÚ_41-5" x1="237.4" y1="216.53" x2="171.57" y2="17.08" gradientTransform="matrix(1, 0, 0, 1, 0, 0)" xlink:href="#_ÂÁ_Ï_ÌÌ_È_ËÂÌÚ_41"/><linearGradient id="_ÂÁ_Ï_ÌÌ_È_ËÂÌÚ_7-4" x1="128.7" y1="-3.66" x2="197.23" y2="130.42" gradientTransform="matrix(1, 0, 0, 1, 0, 0)" xlink:href="#_ÂÁ_Ï_ÌÌ_È_ËÂÌÚ_7"/><linearGradient id="_ÂÁ_Ï_ÌÌ_È_ËÂÌÚ_7-5" x1="128.96" y1="143.72" x2="107.59" y2="69.29" gradientTransform="matrix(1, 0, 0, 1, 0, 0)" xlink:href="#_ÂÁ_Ï_ÌÌ_È_ËÂÌÚ_7"/><linearGradient id="_ÂÁ_Ï_ÌÌ_È_ËÂÌÚ_7-6" x1="188.92" y1="134.83" x2="178.24" y2="21.34" gradientTransform="matrix(1, 0, 0, 1, 0, 0)" xlink:href="#_ÂÁ_Ï_ÌÌ_È_ËÂÌÚ_7"/><linearGradient id="_ÂÁ_Ï_ÌÌ_È_ËÂÌÚ_116" x1="364.56" y1="360.51" x2="339.01" y2="494.63" gradientTransform="translate(-28.3 -233.98) rotate(-3.95)" xlink:href="#_ÂÁ_Ï_ÌÌ_È_ËÂÌÚ_33"/><linearGradient id="_ÂÁ_Ï_ÌÌ_È_ËÂÌÚ_41-6" x1="346.1" y1="438.81" x2="270.2" y2="497.27" gradientTransform="translate(-28.3 -233.98) rotate(-3.95)" xlink:href="#_ÂÁ_Ï_ÌÌ_È_ËÂÌÚ_41"/><linearGradient id="_ÂÁ_Ï_ÌÌ_È_ËÂÌÚ_7-7" x1="327.36" y1="426.92" x2="305.75" y2="485.62" gradientTransform="translate(-28.3 -233.98) rotate(-3.95)" xlink:href="#_ÂÁ_Ï_ÌÌ_È_ËÂÌÚ_7"/><linearGradient id="_ÂÁ_Ï_ÌÌ_È_ËÂÌÚ_116-2" x1="364.6" y1="337.6" x2="339.27" y2="470.58" gradientTransform="translate(-28.3 -233.98) rotate(-3.95)" xlink:href="#_ÂÁ_Ï_ÌÌ_È_ËÂÌÚ_33"/></defs><g class="cls-1"><g id="Layer_2" data-name="Layer 2"><g id="Capa_1" data-name="Capa 1"><path class="cls-2" d="M92,128.49c-.63,15.28-1,32.77-1,51.36,0,16.37.27,31.88.77,45.79h82.26c.5-13.91.78-29.42.78-45.79,0-18.59-.36-36.08-1-51.36Z"/><path class="cls-3" d="M167,129.22v93.06a13.74,13.74,0,0,1-.41,3.36H11.27C5.07,225.64,0,220.83,0,215V139.17c0-5.88,5.07-10.68,11.27-10.68H166.94C167,128.73,167,129,167,129.22Z"/><path class="cls-4" d="M74.6,170.25a29.12,29.12,0,0,0-28.34-22.46,34.72,34.72,0,0,0-5.57.57,29.07,29.07,0,0,0-19.92,42.39,1.68,1.68,0,0,1,.28,1.4c-1.35,4.46-2.61,9-3.78,13.53-.22.8-.22.8.52.58,4.71-1.29,9.38-2.47,14.07-3.65a1.4,1.4,0,0,1,1,0A29.05,29.05,0,0,0,74.6,170.25ZM50.34,200.69A13.73,13.73,0,0,1,47,201a25.23,25.23,0,0,1-13.13-3.34,1.36,1.36,0,0,0-1.49-.22c-2.62.63-5.19,1.31-7.77,2-.56.16-.62.08-.49-.47.69-2.41,1.36-4.87,2.11-7.34a1.82,1.82,0,0,0-.31-1.75,23.94,23.94,0,0,1,.86-27.07c6.13-8.17,14.58-11.59,24.6-9.46s16.19,8.5,18.44,18.33A24,24,0,0,1,50.34,200.69Z"/><path class="cls-4" d="M53.87,190.75a7.82,7.82,0,0,1-3-.44c-6.61-1.92-11.66-6-15.72-11.56a16.13,16.13,0,0,1-3.37-6.83,7.87,7.87,0,0,1,2.65-7.78,4.46,4.46,0,0,1,3.85-.57,2.19,2.19,0,0,1,.63.77c.85,2,1.72,4,2.55,5.94a1.42,1.42,0,0,1-.13,1.23,11.34,11.34,0,0,1-1.76,2.39,1.1,1.1,0,0,0-.17,1.64,19.72,19.72,0,0,0,9.94,8.5,1.11,1.11,0,0,0,1.45-.33c.76-.91,1.5-1.84,2.17-2.74a1.23,1.23,0,0,1,1.62-.39l4.23,1.95,1,.46c1.44.72,1.44.8,1.29,2.33-.23,3.07-2.54,4.58-5.22,5.35A5.17,5.17,0,0,1,53.87,190.75Z"/><text class="cls-5" transform="translate(0.15 256.7)">Necesitas <tspan class="cls-6" x="0" y="35.63">A</tspan><tspan x="21.2" y="35.63">yuda?</tspan></text><path class="cls-7" d="M161.16,242.83a47,47,0,0,1,4.41-5.62,6.68,6.68,0,0,1,.47,2.46,18.06,18.06,0,0,1-1.39,5.93,118.22,118.22,0,0,0-6.37,30.58A25,25,0,0,0,144.59,275,147.43,147.43,0,0,1,161.16,242.83Z"/><path class="cls-8" d="M158.28,276.18a23.49,23.49,0,0,1,3.07,1.39A25,25,0,0,1,173,291.8c-4.86,8.91-11.42,17.07-16.77,25.57a11.25,11.25,0,0,1-2.2,2.77,3.75,3.75,0,0,1-3.3.89c-1.14-.31-1.44-.69-1.57-1.88a22.64,22.64,0,0,1,.93-9.14c1.32-4.14,7.39-7.35,6.69-12.28-.44-3.07-6-2.28-8.06-1.27l-.2.11c-2.86,1.49-5,4.07-7.35,6.24a25.71,25.71,0,0,1-2.07,1.71,31.15,31.15,0,0,1-9.84,5.09,9.7,9.7,0,0,1-5.45.43c-1.78-.49-2.59-2.37-2.48-4.21,9.83-6.44,18-16.23,22-27.36.4-1.15.82-2.29,1.26-3.43A25,25,0,0,1,158.28,276.18Z"/><path class="cls-9" d="M148.54,296.57q-1.78,8.07-3.58,16.15c-.28,1.22-.74,2.64-1.94,2.94a2.24,2.24,0,0,1-2.17-.82,5.69,5.69,0,0,1-1-2.2,23.41,23.41,0,0,1-.71-8.12,25.71,25.71,0,0,0,2.07-1.71C143.58,300.64,145.68,298.06,148.54,296.57Z"/><path class="cls-10" d="M183.63,243.54a90.21,90.21,0,0,1-.57,15.21A103,103,0,0,1,176.72,284a65.5,65.5,0,0,1-3.7,7.81,25,25,0,0,0-11.67-14.23,23.49,23.49,0,0,0-3.07-1.39,118.22,118.22,0,0,1,6.37-30.58,18.06,18.06,0,0,0,1.39-5.93,6.68,6.68,0,0,0-.47-2.46,21.76,21.76,0,0,1,3.27-2.87c2.81-2,7.93-4.18,11-1.91S183.46,240.05,183.63,243.54Z"/><path class="cls-10" d="M215,322.35c5,17.28,5,34.2,4.49,51.14q-5.55,1-11.26,1.57a210.78,210.78,0,0,0-.45-31.84c-.44-5.08-1.12-10.34-3.6-15.22-3.07-6.06-8.51-10.79-14.09-15.09a16.54,16.54,0,0,1,4.45-3.74,12.16,12.16,0,0,1,11.82-.06C211.18,311.78,213.58,317.34,215,322.35Z"/><path class="cls-11" d="M204.22,328c2.48,4.88,3.16,10.14,3.6,15.22a210.78,210.78,0,0,1,.45,31.84q-4.67.44-9.39.52c-.12-17.54-5.45-36-15.18-52.59,1-2,2.12-3.86,3.27-5.69a40.37,40.37,0,0,1,3.16-4.39C195.71,317.21,201.15,321.94,204.22,328Z"/><path class="cls-12" d="M183.7,323c9.73,16.61,15.06,35.05,15.18,52.59a139.83,139.83,0,0,1-27-2.13C171.93,355.91,176,337.73,183.7,323Z"/><path class="cls-13" d="M189.07,318.51a70.78,70.78,0,0,0-13.6,35.81c5.89,3.89,14,3.65,18.61,0s6.27-10.17,5.33-16.61S193.38,324.09,189.07,318.51Z"/><path class="cls-10" d="M237.72,214.48c22.65,10.31,39.47,35.84,36.08,58.89a50.86,50.86,0,0,1-16.55,30.21c-11.64,10.55-27.2,18.53-45.14,14.44a44.9,44.9,0,0,1-6.46-2,34.57,34.57,0,0,0,30.46-7.48c10.36-9.23,14.85-24.05,15.83-39.21.69-10.63-.43-22.35-6.71-32.31-7.82-12.39-22.27-19.48-35.53-21a70.33,70.33,0,0,0-18.88.56C203.85,208.64,220.82,206.78,237.72,214.48Z"/><path class="cls-14" d="M245.23,237c6.28,10,7.4,21.68,6.71,32.31-1,15.16-5.47,30-15.83,39.21A34.57,34.57,0,0,1,205.65,316c-12.92-5-24.57-15.65-31.24-28.41-7.48-14.3-8.85-30.68-4.6-44.13a48.53,48.53,0,0,1,21-26.88,70.33,70.33,0,0,1,18.88-.56C223,217.55,237.41,224.64,245.23,237ZM210.9,256c1.87-5.85.24-14.05-3.89-19.49a14.55,14.55,0,0,0-11.16-6.17,42.75,42.75,0,0,1,1.86-13.59,31,31,0,0,0-5.73,14c-6.74,1.69-11.8,8.13-13.85,14.07a17.66,17.66,0,0,0-1,4.26,19.59,19.59,0,0,0,4,13.56,14.45,14.45,0,0,0,9.08,5.51,17.7,17.7,0,0,0,1.94.21c.41,14.91,6.73,30.71,17.25,43.08-8.82-13.54-13.4-28.56-13.2-43.29C203,267.05,208.9,262.3,210.9,256Z"/><path class="cls-10" d="M207,236.55c4.13,5.44,5.76,13.64,3.89,19.49-2,6.26-7.92,11-14.67,12.15-.2,14.73,4.38,29.75,13.2,43.29-10.52-12.37-16.84-28.17-17.25-43.08a17.7,17.7,0,0,1-1.94-.21,14.45,14.45,0,0,1-9.08-5.51,19.59,19.59,0,0,1-4-13.56,17.66,17.66,0,0,1,1-4.26c2.05-5.94,7.11-12.38,13.85-14.07a31,31,0,0,1,5.73-14,42.75,42.75,0,0,0-1.86,13.59A14.55,14.55,0,0,1,207,236.55Zm2.78,15.29a19.56,19.56,0,0,0-.39-5.94c0-.2-.09-.4-.14-.6a6.25,6.25,0,0,0-.16-.62,4.61,4.61,0,0,0-.15-.53c-.12-.43-.27-.86-.43-1.29a2,2,0,0,0-.11-.28,7.81,7.81,0,0,0-.3-.75c-.22-.52-.47-1-.73-1.53s-.51-.88-.79-1.31a14.14,14.14,0,0,0-2.59-3c-.2-.18-.4-.33-.59-.49a10.33,10.33,0,0,0-6.73-2.18c-7,.23-12.61,6.81-14.75,13a16,16,0,0,0-.83,3.65c-.58,6.37,3,14.17,10.15,15.35a16.13,16.13,0,0,0,8.33-.91,17.74,17.74,0,0,0,2.67-1.29,16.22,16.22,0,0,0,2.07-1.43,14.92,14.92,0,0,0,4.91-7,6.79,6.79,0,0,0,.29-1.16A10.85,10.85,0,0,0,209.79,251.84Z"/><path class="cls-15" d="M209.4,245.9a19.56,19.56,0,0,1,.39,5.94,10.85,10.85,0,0,1-.27,1.66,6.79,6.79,0,0,1-.29,1.16,14.92,14.92,0,0,1-4.91,7,16.22,16.22,0,0,1-2.07,1.43,17.74,17.74,0,0,1-2.67,1.29,16.47,16.47,0,0,1-7.11,1c-3.95-3-5.85-8.55-5.42-13.32a15,15,0,0,1,.83-3.64c2.13-6.16,7.71-12.75,14.75-13,.26,0,.52,0,.78,0l.59.49a14.14,14.14,0,0,1,2.59,3c.28.43.54.87.79,1.31s.51,1,.73,1.53a7.81,7.81,0,0,1,.3.75,2,2,0,0,1,.11.28c.16.43.3.86.43,1.29a4.61,4.61,0,0,1,.15.53,6.25,6.25,0,0,1,.16.62C209.31,245.5,209.36,245.7,209.4,245.9Z"/><path class="cls-16" d="M203.41,235.5c-.26,0-.52,0-.78,0-7,.23-12.62,6.82-14.75,13a15,15,0,0,0-.83,3.64c-.43,4.77,1.47,10.33,5.42,13.32a16.47,16.47,0,0,0,7.11-1,16.13,16.13,0,0,1-8.33.91c-7.14-1.18-10.73-9-10.15-15.35a16,16,0,0,1,.83-3.65c2.14-6.16,7.72-12.74,14.75-13A10.33,10.33,0,0,1,203.41,235.5Z"/><path class="cls-17" d="M207.17,250.74a7.64,7.64,0,0,1-4.74,5,8.31,8.31,0,0,1-7.43-1.41,8.4,8.4,0,0,1-3.44-7.17c-.61,2.45-1.48,5.5-.57,8.15a10.46,10.46,0,0,0,5.51,6.24,7.26,7.26,0,0,0,8.19-2C206.6,257.38,206.59,253.76,207.17,250.74Z"/><path class="cls-18" d="M201.19,249.69c2.14-.66,4.54-2.27,3.86-5.12a5.45,5.45,0,0,0-5.7-3.77C194.31,241.57,194.79,251.65,201.19,249.69Z"/><path class="cls-19" d="M226.5,233.31a16,16,0,0,1,1.62,13.23c-1.29,4.07-4,7.36-6.93,10.25a62,62,0,0,1-24.91,14.77c0-1.12-.07-2.25-.05-3.37C203,267.05,208.9,262.3,210.9,256c1.87-5.85.24-14.05-3.89-19.49a14.55,14.55,0,0,0-11.16-6.17,47.07,47.07,0,0,1,1-10.38,46,46,0,0,1,20.9,5.68C221.12,227.58,224.42,230,226.5,233.31Zm-43.13,41a68.21,68.21,0,0,0,9.1-1.66c-.14-1.41-.25-2.82-.29-4.23a17.7,17.7,0,0,1-1.94-.21,14.45,14.45,0,0,1-9.08-5.51,19.59,19.59,0,0,1-4-13.56,17.66,17.66,0,0,1,1-4.26c2.05-5.94,7.11-12.38,13.85-14.07a31.87,31.87,0,0,1,3.65-10.8,30.93,30.93,0,0,0-12.53,2.47,48.83,48.83,0,0,0-13.29,21A55.71,55.71,0,0,0,168.39,270a12.25,12.25,0,0,0,1.71,1.66C174,274.71,179,274.78,183.37,274.29Z"/><path class="cls-20" d="M276.52,354.05a140.15,140.15,0,0,0,13.11,20.4c-3.78-.26-7.57-.62-11.4-1.07A104.42,104.42,0,0,1,276.52,354.05Z"/><path class="cls-21" d="M314.45,350.9c4.25,7.21,8.26,14.5,11.93,21.91a152.55,152.55,0,0,1-36.75,1.64,140.15,140.15,0,0,1-13.11-20.4c0-.3,0-.6,0-.91.09-7.22.15-16.41,3.43-22.46a8.69,8.69,0,0,1,8.13-4.85C299.8,326.58,309.08,341.78,314.45,350.9Z"/><path class="cls-10" d="M276.52,354.05a104.42,104.42,0,0,0,1.71,19.33q-3.19-.39-6.4-.84a249.58,249.58,0,0,1-8.28-55.85A127.65,127.65,0,0,0,276.52,354.05Z"/><path class="cls-22" d="M331.46,371.81c-1.68.38-3.38.71-5.08,1-3.67-7.41-7.68-14.7-11.93-21.91-5.37-9.12-14.65-24.32-26.38-25.07a8.69,8.69,0,0,0-8.13,4.85c-3.28,6.05-3.34,15.24-3.43,22.46,0,.31,0,.61,0,.91a127.65,127.65,0,0,1-13-37.36q-.35-10.77.32-21.33c.23-3.63,1.73-6.88,5.11-7.95s7.55-.08,11.13,1.89a44,44,0,0,1,9.62,7.74C310.49,317.67,324.94,345.36,331.46,371.81Z"/><path class="cls-23" d="M275.48,331.59c2.89,6.7,7.15,13.87,13.66,16.77a12.83,12.83,0,0,0,16.58-5.27c5.37-9.76-.2-23.2-7.33-33.29-5.36-7.58-20.24-25.21-29.09-19.21-2.95,2-2.92,6.6-2.39,10.65A116.48,116.48,0,0,0,275.48,331.59Z"/><path class="cls-10" d="M234.31,220.71a108.66,108.66,0,0,1-58.71,10.7,33.15,33.15,0,0,1,11.67-10.66c8.31.61,15.92-1.64,24.15-3S226.77,217.15,234.31,220.71Z"/><path class="cls-15" d="M214.26,104.36c0,.57,0,1.13-.06,1.69-.43,10.81-1.82,22.31-2.45,33.26a60.93,60.93,0,0,0-19.67,3.22c-3.18-8.48-5.88-17.4-6.83-26.41s.56-18.63,6.05-25.83c3.22-4.24,7.6-6.71,12.47-3.78a22.44,22.44,0,0,1,9.07,12A35.75,35.75,0,0,1,214.26,104.36Z"/><path class="cls-15" d="M142.09,153.9a59.18,59.18,0,0,0-10.64,2.43c-2.77-6.12-5.7-12.67-7.21-19.22s-1.65-13.6.82-19.86c1.13-2.83,2.94-5.63,5.76-6.77a6.32,6.32,0,0,1,4.83.13C137,125.14,138.41,139.88,142.09,153.9Z"/><path class="cls-16" d="M181.63,160.08A56,56,0,0,1,167,185.16c-5.16-3.53-9.69-9.71-13.28-14.8A64.74,64.74,0,0,0,181.63,160.08Z"/><path class="cls-16" d="M192.08,142.53a60.93,60.93,0,0,1,19.67-3.22c-.08,1.29-.15,2.56-.19,3.83q-13.14,1.34-26.18,3.51a100.57,100.57,0,0,1-10.06-55.76c.54-4.77,1.45-9.59,3.64-13.84s5.84-8,10.43-9.38c5.73-1.74,12.2.44,16.53,4.59s6.72,10,7.73,15.87a77.9,77.9,0,0,1,.61,16.23,35.75,35.75,0,0,0-1.42-5.86,22.44,22.44,0,0,0-9.07-12c-4.87-2.93-9.25-.46-12.47,3.78-5.49,7.2-7,16.83-6.05,25.83S188.9,134.05,192.08,142.53Z"/><path class="cls-16" d="M131.45,156.33a59.18,59.18,0,0,1,10.64-2.43c.19.75.39,1.51.6,2.26-5.44,1.51-10.85,3.16-16.22,4.9A79.16,79.16,0,0,1,115,115.69a55.33,55.33,0,0,1,4-18.35,15.59,15.59,0,0,1,3-5A7.16,7.16,0,0,1,127.21,90c2.66.1,4.92,2.15,6.08,4.55a22.44,22.44,0,0,1,1.64,7.76c.25,2.75.49,5.5.72,8.27a6.32,6.32,0,0,0-4.83-.13c-2.82,1.14-4.63,3.94-5.76,6.77-2.47,6.26-2.32,13.31-.82,19.86S128.68,150.21,131.45,156.33Z"/><path class="cls-24" d="M214.26,104.36a77.9,77.9,0,0,0-.61-16.23c-1-5.9-3.41-11.73-7.73-15.87s-10.8-6.33-16.53-4.59c-4.59,1.4-8.22,5.1-10.43,9.38s-3.1,9.07-3.64,13.84a100.57,100.57,0,0,0,10.06,55.76q13-2.18,26.18-3.51c0-1.27.11-2.54.19-3.83.63-10.95,2-22.45,2.45-33.26C214.23,105.49,214.24,104.93,214.26,104.36ZM142.09,153.9c-3.68-14-5.14-28.76-6.44-43.29-.23-2.77-.47-5.52-.72-8.27a22.44,22.44,0,0,0-1.64-7.76c-1.16-2.4-3.42-4.45-6.08-4.55A7.16,7.16,0,0,0,122,92.36a15.59,15.59,0,0,0-3,5,55.33,55.33,0,0,0-4,18.35,79.16,79.16,0,0,0,11.47,45.37c5.37-1.74,10.78-3.39,16.22-4.9C142.48,155.41,142.28,154.65,142.09,153.9ZM245.7,95.53c2,25.34-4.27,50.78-11.15,75.26-5,4.17-10.38,8.93-15.4,13.1a87.5,87.5,0,0,0,5.71,36.34,244,244,0,0,1-77.5,7.92c-5.36-11.46-8.52-20.43-12.42-33.57-5.88-2.81-19-10.9-19-10.9s-7-20.55-8.85-27.64c-3.92-15-5.93-30.64-4.89-46.16,1.75-26.21,12.84-52.47,33.29-68.95s50.74-21.43,73.79-8.84C231.62,44.27,243.69,70.19,245.7,95.53ZM167,185.16a56,56,0,0,0,14.66-25.08,64.74,64.74,0,0,1-27.94,10.28C157.28,175.45,161.81,181.63,167,185.16Z"/><path class="cls-25" d="M293.73,87.28c-1.74,16.88-7.72,33.61-13.28,49.83-1.57,4.59-3.12,9.25-4.55,14a6,6,0,0,1-3.1-1.19c-4.44-3.07-6.16-8.31-7-13.92l-.09-.67c3-6.09,6-12.21,8.66-18.44,4.69-10.85,8.54-22.31,10-34A7.94,7.94,0,0,1,292.24,85,8.92,8.92,0,0,1,293.73,87.28Z"/><path class="cls-20" d="M296,90.68a24.84,24.84,0,0,0-2-7.37,10.25,10.25,0,0,0-2.28-3.1,9.42,9.42,0,0,0-6.81-2.34,12.41,12.41,0,0,0-5.9,1.7c-4,2.3-6.76,6.31-9,10.45A72.71,72.71,0,0,0,263,139.26c.08.4.17.79.26,1.18,1.38,5.82,3.81,11.11,9,14.13a9.1,9.1,0,0,0,2.38,1c4.42,1.08,7.39-2.73,10-7.13a86.74,86.74,0,0,0,9.15-21.7A90,90,0,0,0,296,90.68ZM283.31,145c-2.1,3.36-4.4,6.28-7.41,6.11a6,6,0,0,1-3.1-1.19c-4.44-3.07-6.16-8.31-7-13.92l-.09-.67a68.39,68.39,0,0,1,8.15-42.54c2.05-3.56,4.54-7,7.91-8.86a9.86,9.86,0,0,1,2.64-1A7.94,7.94,0,0,1,292.24,85a8.92,8.92,0,0,1,1.49,2.27,21,21,0,0,1,1.58,7.17A83.55,83.55,0,0,1,283.31,145Z"/><path class="cls-26" d="M295.31,94.45a83.55,83.55,0,0,1-12,50.52c-2.1,3.36-4.4,6.28-7.41,6.11,1.43-4.72,3-9.38,4.55-14,5.56-16.22,11.54-33,13.28-49.83A21,21,0,0,1,295.31,94.45Zm-21.43-1.69a68.39,68.39,0,0,0-8.15,42.54c3-6.09,6-12.21,8.66-18.44,4.69-10.85,8.54-22.31,10-34a9.86,9.86,0,0,0-2.64,1C278.42,85.76,275.93,89.2,273.88,92.76Z"/><path class="cls-10" d="M142.61,227.82c-1.66-.13-3.32-.29-5-.48q-6.64-12-13.32-24A119.07,119.07,0,0,1,142.61,227.82ZM239,8.77c24.12,7.84,42.7,30.54,45.63,55.74a72.78,72.78,0,0,1,.28,13.36,9.42,9.42,0,0,1,6.81,2.34,10.25,10.25,0,0,1,2.28,3.1,78.6,78.6,0,0,0-.77-17.45C288.86,38.44,266.09,15,239,8.77Zm24.18,131.67c-4.09,8.36-8.1,16.74-11.38,25.44-5.71,15.24-9.09,31.92-6.26,47.81a226.77,226.77,0,0,0,25.17-10.91c-3.05-15.51-.49-31.59,3.88-47.23a9.1,9.1,0,0,1-2.38-1C267,151.55,264.59,146.26,263.21,140.44Z"/><path class="cls-27" d="M295,46.25c-6.35-14.68-17-27.65-30.86-35.67S233.88-.23,217.88,0c-30.54.48-63.34,7.67-87,28.07A100.29,100.29,0,0,0,97.11,93.14c-2.11,20.78,1.79,43.13,7.13,63.65.8,3.13,1.66,6.23,2.52,9.26a200.66,200.66,0,0,0,20.67,47.53c1.21,2,6.68,13.4,8.87,13.63.45,0,.9.1,1.34.13q-6.64-12-13.32-24a119.07,119.07,0,0,1,18.29,24.43c1.58.13,3.16.24,4.75.33-5.36-11.46-8.52-20.43-12.42-33.57-5.88-2.81-19-10.91-19-10.91s-7-20.54-8.85-27.63c-3.92-15-5.93-30.64-4.89-46.16,1.75-26.21,12.84-52.47,33.29-68.95s50.74-21.43,73.79-8.84c22.31,12.18,34.38,38.1,36.39,63.44s-4.27,50.78-11.15,75.26c-5,4.17-10.38,8.93-15.4,13.1a87.5,87.5,0,0,0,5.71,36.34q10.53-2.79,20.71-6.54c-2.83-15.89.55-32.57,6.26-47.81,3.28-8.7,7.29-17.08,11.38-25.44-.09-.39-.18-.78-.26-1.18A72.71,72.71,0,0,1,270,90c2.25-4.14,5.05-8.15,9-10.45a12.41,12.41,0,0,1,5.9-1.7,72.78,72.78,0,0,0-.28-13.36c-2.93-25.2-21.51-47.9-45.63-55.74,27.06,6.21,49.83,29.67,54.23,57.09A78.6,78.6,0,0,1,294,83.31a24.84,24.84,0,0,1,2,7.37,90,90,0,0,1-2.24,36,86.74,86.74,0,0,1-9.15,21.7c-2.64,4.4-5.61,8.21-10,7.13-4.37,15.64-6.93,31.72-3.88,47.23C274.37,201,278,199,281.47,197c0-23.64,8.62-46.49,14.87-69.57,3.06-11.32,5.57-22.68,6.25-34.23C303.52,77.2,301.33,60.93,295,46.25Z"/><path class="cls-28" d="M224.8,2.48c5.42,6.67,8.07,15.44,8.33,24.13s-1.75,17.32-4.8,25.42C221,71.46,207.75,88.17,192,101.23s-34.12,22.63-53,30.24c-5.49,2.21-11.14,4.28-17,4.72s-12.12-.95-16.56-4.95C93.76,120.79,97,98,99.92,84.45a102.68,102.68,0,0,1,23.34-46.52C147.91,10.19,188.73-.87,224.8,2.48Z"/><path class="cls-29" d="M120.39,144.61a9.48,9.48,0,0,0,2.12,3.25,3.71,3.71,0,0,0,3.6.93c1.52-.55,2.25-2.26,2.72-3.81,3.21-10.63,2.2-22.06.27-33a13.82,13.82,0,0,0-1.43-4.69,4.44,4.44,0,0,0-7.89-.46C112.35,116.85,115.61,134.16,120.39,144.61Z"/><path class="cls-30" d="M178.69,125.52a16.48,16.48,0,0,0,3.16,6.26,6.65,6.65,0,0,0,6.32,2.3c3.53-.89,5-5.05,5.69-8.61,2.78-13.65,5.42-30.1-.77-43.15-1.22-2.59-3.63-4.82-6.49-5a7.77,7.77,0,0,0-5.82,2.49,16.24,16.24,0,0,0-3.34,5.54C172.63,97.37,174.85,113.44,178.69,125.52Z"/><path class="cls-31" d="M357.39,202c-.72-.36-1.43-.71-2.13-1.1a71.88,71.88,0,0,1-31.24-34c.28-.8.53-1.59.76-2.38-4.73-11.87-13.94-22.66-24.41-30-2.95-2.07-4.18-4.72-2.71-8s5.21-5.15,8.81-5.23,7.09,1.32,10.25,3a50.08,50.08,0,0,1,18.15,16.88c-.28-.42,5.45-9.39,6-10.5,4.42-9.33,7.23-19.42,7.16-29.78,0-2.23-.76-5.35-.94-8.26s.26-5.89,2.86-7.31a6,6,0,0,1,5.91.47A13.9,13.9,0,0,1,360,90.41c8.27,13,9.64,30.68,2.57,44.38a79.92,79.92,0,0,1,8.1,4,90.53,90.53,0,0,0,6.79-41.92c-.25-3.1-.45-6.73,1.93-8.73,2.16-1.81,5.58-1.25,7.73.55s3.3,4.52,4.18,7.18a62.72,62.72,0,0,1-6.69,52.56c1.62,1.34,3.2,2.73,4.7,4.16a58.73,58.73,0,0,0,11.35-20.19c1-3.26,2.32-7.12,5.59-8.08a6.2,6.2,0,0,1,6.15,2.1,12.55,12.55,0,0,1,2.65,6.24c1.68,9.8-3.37,21.82-7.37,30.63A118.61,118.61,0,0,1,389.8,191.1c-4.58,5.35-9.4,10.56-14.48,15.48C369.21,206.66,363,204.77,357.39,202Z"/><path class="cls-10" d="M375.32,206.58c-10.85,10.54-22.9,19.85-36.39,26.74-14.79,7.56-41,18.94-56.65,8.68a17.36,17.36,0,0,1-7-9.24,21.68,21.68,0,0,0,10.48,5.3c5.79,1.2,11.83.41,17.61-.93a95.18,95.18,0,0,0,54-35.11C363,204.77,369.21,206.66,375.32,206.58Z"/><path class="cls-32" d="M355.26,200.92c.7.39,1.41.74,2.13,1.1a95.18,95.18,0,0,1-54,35.11c-5.78,1.34-11.82,2.13-17.61.93a21.68,21.68,0,0,1-10.48-5.3,13.33,13.33,0,0,1,.17-8.9c2.1-5.37,7.45-8.59,12.23-11.81a103.45,103.45,0,0,0,24-22A79,79,0,0,0,324,166.9,71.88,71.88,0,0,0,355.26,200.92Z"/><path class="cls-33" d="M337.62,190.78a65.69,65.69,0,0,1-20.06,20.45,21.8,21.8,0,0,1-7.34,3.35,9.37,9.37,0,0,1-7.71-1.56c-2.74-2.22-3-5.25-1-8.18a24.75,24.75,0,0,1,4.61-4.65,68.46,68.46,0,0,0,19.17-27.68A41.45,41.45,0,0,0,337.62,190.78Z"/><path class="cls-34" d="M333.3,139c.54.74,1.07,1.5,1.57,2.28-.28-.42,5.45-9.39,6-10.5,4.42-9.33,7.23-19.42,7.16-29.78,0-2.23-.76-5.35-.94-8.26a12.89,12.89,0,0,1,.21-3.55,75.26,75.26,0,0,1-8.68,61.91A62.15,62.15,0,0,0,333.3,139Zm46.19,63.46a160,160,0,0,1-25.12-9.79c-6.4-3.15-12.77-6.88-17.08-12.56-4.48-5.9-6.32-13.32-9.22-20.14A67.65,67.65,0,0,0,305,131.35a33.73,33.73,0,0,1-5.32-4.17,11.71,11.71,0,0,1-1.37-1.82,8,8,0,0,0-.66,1.18c-1.47,3.28-.24,5.93,2.71,8,10.47,7.32,19.68,18.11,24.41,30-.23.79-.48,1.58-.76,2.38a71.88,71.88,0,0,0,31.24,34c.7.39,1.41.74,2.13,1.1,5.61,2.75,11.82,4.64,17.93,4.56Q377.44,204.53,379.49,202.41Zm-9.36-63.93c.91,1,1.85,2,2.68,3.16,4.93-6.62,7.1-15,7.68-23.2s-.34-16.51-1-24.74a13.46,13.46,0,0,1,.56-6,3.69,3.69,0,0,0-.67.44c-2.38,2-2.18,5.63-1.93,8.73a90.53,90.53,0,0,1-6.79,41.92Zm36.12-14.18c-3.27,1-4.54,4.82-5.59,8.08a58.8,58.8,0,0,1-11,19.79,12.83,12.83,0,0,1,2.6,6.34c4-2.35,6.51-6.58,8-10.94s2.22-9,3.48-13.42a27.29,27.29,0,0,1,4.8-10A5.16,5.16,0,0,0,406.25,124.3Z"/></g></g></g></svg>