<svg xmlns="http://www.w3.org/2000/svg" viewBox="0 0 150.55 81.93"><defs><style>.cls-1{fill:#fff;}</style></defs><g id="Layer_2" data-name="Layer 2"><g id="Capa_1" data-name="Capa 1"><path class="cls-1" d="M146,0a4.53,4.53,0,1,0,4.53,4.53A4.54,4.54,0,0,0,146,0Zm0,8.48a4,4,0,1,1,4-3.95A4,4,0,0,1,146,8.48Z"/><path class="cls-1" d="M147.68,3.71a1.55,1.55,0,0,0-1.59-1.52h-1.52V6.87h.94V4.66L147,6.87h1.15L146.82,5A1.37,1.37,0,0,0,147.68,3.71Zm-1.57.59h-.6V3.12h.6a.6.6,0,0,1,.6.59A.59.59,0,0,1,146.11,4.3Z"/><path class="cls-1" d="M99,57.36A1.56,1.56,0,0,0,97.89,60a1.53,1.53,0,0,0,1.1.46,1.51,1.51,0,0,0,1.1-.46A1.56,1.56,0,0,0,99,57.36Z"/><path class="cls-1" d="M104.84,36.23a6,6,0,1,0,6.16,6A6,6,0,0,0,104.84,36.23Z"/><path class="cls-1" d="M71.88,57.36a1.55,1.55,0,0,0-1.55,1.55,1.53,1.53,0,0,0,.31.93l2.17-2.17A1.43,1.43,0,0,0,71.88,57.36Z"/><polygon class="cls-1" points="44.58 46.41 49.09 46.41 46.84 41.2 44.58 46.41"/><path class="cls-1" d="M136.47,8.74C127.33-.21,113.31,0,113.16,0H0V81.93H144.45l0-51.8C144.42,21.1,141.75,13.9,136.47,8.74ZM33.05,53.24H27.23V45H20.71v8.27H14.87v-22h5.84v8.24h6.52V31.27h5.82Zm19,0L51,50.68H42.74l-1.11,2.56H35.25L45.45,31h2.77l7.62,16.58ZM63.79,60.7h-.31V58.48a1,1,0,0,0-.31-.73,1,1,0,0,0-.73-.31,1,1,0,0,0-.74.3,1.1,1.1,0,0,0-.24.35V60.7h-.31V57.34h.31v.21a1.39,1.39,0,0,1,1.95,0,1.36,1.36,0,0,1,.38.94Zm9.43-.46a1.83,1.83,0,0,1-1.34.55A1.9,1.9,0,0,1,70,58.91,1.9,1.9,0,0,1,71.88,57a1.84,1.84,0,0,1,1.17.4l.17.15,0,.06-.23.24-2.19,2.19a1.5,1.5,0,0,0,1,.4A1.51,1.51,0,0,0,73,60l.11-.12.33.12A2.2,2.2,0,0,1,73.22,60.24Zm1.66-7H60.64V40.42l5.83-8.89V47.76h8.41Zm6.22,4.4h-.68V60.7h-.31V57.64h-.68v-.3h.68V55.91h.31v1.43h.68ZM91,59.78a1,1,0,0,1-.29.67,1,1,0,0,1-1.41,0l-.14-.16a1,1,0,0,1-.14.16.94.94,0,0,1-.7.3,1,1,0,0,1-.71-.3,1,1,0,0,1-.29-.67V57.34h.31v2.44h0a.63.63,0,0,0,.2.46.7.7,0,0,0,1,0,.75.75,0,0,0,.2-.43V57.34h.3v2.39a.69.69,0,0,0,.21.51.69.69,0,0,0,1,0,.68.68,0,0,0,.21-.46h0V57.34H91Zm.6-6.54H77.36v-22h5.83V47.76H91.6Zm8.72,7a1.89,1.89,0,0,1-3.21-1.33,1.88,1.88,0,1,1,3.76,0A1.79,1.79,0,0,1,100.32,60.24Zm8.13-2.65a1,1,0,0,0-.6.33,1.48,1.48,0,0,0-.45,1V60.7h-.31V57.34h.31V58a1.32,1.32,0,0,1,.22-.26,1.23,1.23,0,0,1,.83-.43Zm7.9,3.11-1.14-2.09-.3.37V60.7h-.31V55.91h.31v2.58l.93-1.15h.4l-.83,1,1.32,2.34Zm-11.52-6.9c-6.83,0-12-5-12-11.52s5.24-11.6,12.06-11.6,12.07,5,12.07,11.6S111.67,53.8,104.83,53.8Zm20.8-15.2-.16.81-.15-.81A17.21,17.21,0,0,0,109.78,24l-1,0,1-.26c5.81-1.5,10.15-1,12.89,1.61C127.29,29.66,125.65,38.51,125.63,38.6Zm5.57-2.4L131,37l-.14-.82c-1.73-9.57-7.22-14.31-11.52-16.6a24.11,24.11,0,0,0-9-2.71l-1,0,1-.26c7.65-2,13.35-1.27,17,2.11C133.38,24.45,131.22,36.09,131.2,36.2Z"/><path class="cls-1" d="M109.78,23.83a17.29,17.29,0,0,1,15.7,14.74S129.3,18.77,109.78,23.83Zm15.67,13.83a17.39,17.39,0,0,0-14.79-13.88c5.28-1.22,9.23-.64,11.76,1.73C126.1,29,125.73,35.34,125.45,37.66Z"/><path class="cls-1" d="M110.35,16.74s17.33.78,20.7,19.43C131.05,36.17,136.09,10.07,110.35,16.74ZM131,35.27c-1.92-9.11-7.29-13.69-11.52-15.94a24.74,24.74,0,0,0-8.25-2.65c7.1-1.69,12.4-.93,15.79,2.24C132.08,23.64,131.39,32.47,131,35.27Z"/></g></g></svg>