<svg xmlns="http://www.w3.org/2000/svg" viewBox="0 0 46.52 46.52"><defs><style>.cls-1{fill:none;stroke:#fff;stroke-miterlimit:10;}.cls-2{fill:#fff;}</style></defs><g id="Layer_2" data-name="Layer 2"><g id="Capa_1" data-name="Capa 1"><circle class="cls-1" cx="23.26" cy="23.26" r="22.76"/><path class="cls-2" d="M27.58,18a1,1,0,1,0,1,.95A1,1,0,0,0,27.58,18Z"/><path class="cls-2" d="M23.33,19.24a4,4,0,1,0,4,4A4,4,0,0,0,23.33,19.24Zm0,6.59a2.57,2.57,0,1,1,2.57-2.57A2.58,2.58,0,0,1,23.33,25.83Z"/><path class="cls-2" d="M26.51,31.41H20a4.9,4.9,0,0,1-4.9-4.9V20A4.91,4.91,0,0,1,20,15.1h6.51a4.9,4.9,0,0,1,4.9,4.9v6.51A4.9,4.9,0,0,1,26.51,31.41ZM20,16.64A3.37,3.37,0,0,0,16.64,20v6.51A3.37,3.37,0,0,0,20,29.88h6.51a3.37,3.37,0,0,0,3.37-3.37V20a3.37,3.37,0,0,0-3.37-3.36Z"/></g></g></svg>