<svg xmlns="http://www.w3.org/2000/svg" viewBox="0 0 46.52 46.52"><defs><style>.cls-1{fill:none;stroke:#fff;stroke-miterlimit:10;}.cls-2{fill:#fff;}</style></defs><g id="Layer_2" data-name="Layer 2"><g id="Capa_1" data-name="Capa 1"><circle class="cls-1" cx="23.26" cy="23.26" r="22.76"/><path class="cls-2" d="M33.09,17.06a8.24,8.24,0,0,1-2,.57c.32-.05.8-.64,1-.87a3.53,3.53,0,0,0,.66-1.22.08.08,0,0,0,0-.1.11.11,0,0,0-.11,0,10.09,10.09,0,0,1-2.38.91.14.14,0,0,1-.16-.05,2.08,2.08,0,0,0-.21-.21,4,4,0,0,0-1.15-.7A3.91,3.91,0,0,0,27,15.11a4.28,4.28,0,0,0-1.68.48,4.22,4.22,0,0,0-1.35,1.1,4.26,4.26,0,0,0-.81,1.62,4.63,4.63,0,0,0,0,1.7c0,.1,0,.11-.08.1A12.71,12.71,0,0,1,14.84,16c-.1-.11-.15-.11-.23,0a4.14,4.14,0,0,0,.71,4.89c.16.15.32.3.5.44a4,4,0,0,1-1.58-.44c-.09-.06-.14,0-.15.08a2.53,2.53,0,0,0,0,.47,4.18,4.18,0,0,0,2.58,3.34,2.24,2.24,0,0,0,.52.16,4.61,4.61,0,0,1-1.54.05c-.12,0-.16,0-.12.14a4.37,4.37,0,0,0,3.25,2.72,3.32,3.32,0,0,1,.44.06s0,0,0,0A5.19,5.19,0,0,1,17,29.07a8,8,0,0,1-3.37.43c-.18,0-.22,0-.27,0s0,.07.06.12a8.1,8.1,0,0,0,.7.42,11,11,0,0,0,2.25.9A12,12,0,0,0,28,28.22a12.24,12.24,0,0,0,3.22-8.91c0-.13.15-.2.24-.27a7.73,7.73,0,0,0,1.58-1.65.47.47,0,0,0,.11-.31v0S33.17,17,33.09,17.06Z"/></g></g></svg>